<svg width="155" height="144" viewBox="0 0 155 144" fill="none" xmlns="http://www.w3.org/2000/svg">
<mask id="mask0_51_374" style="mask-type:luminance" maskUnits="userSpaceOnUse" x="0" y="0" width="155" height="144">
<path d="M155 0.134766H0V143.133H155V0.134766Z" fill="white"/>
</mask>
<g mask="url(#mask0_51_374)">
<path d="M78.763 36.926C78.9525 36.9371 79.1424 36.9109 79.3201 36.849C79.4978 36.7872 79.659 36.6911 79.7933 36.5672C79.9275 36.4433 80.0318 36.2945 80.0988 36.1306C80.1659 35.9667 80.1943 35.7915 80.1822 35.6166V30.6519C80.161 30.3185 80.0025 30.0051 79.7392 29.7759C79.4758 29.5467 79.1274 29.4191 78.7653 29.4191C78.4033 29.4191 78.0549 29.5467 77.7915 29.7759C77.5281 30.0051 77.3698 30.3185 77.3486 30.6519V35.6166C77.3734 35.9556 77.5302 36.2749 77.7902 36.5155C78.0501 36.7561 78.3956 36.9019 78.763 36.926Z" fill="white"/>
<path d="M64.7356 37.8418C64.8859 38.1541 65.1645 38.3985 65.5102 38.5213C65.8558 38.6441 66.2401 38.6352 66.5786 38.4965C66.9171 38.3578 67.1821 38.1008 67.3151 37.7819C67.4482 37.463 67.4385 37.1085 67.2882 36.7962L65.3023 32.2202C65.152 31.9079 64.8734 31.6635 64.5278 31.5407C64.1821 31.418 63.7978 31.4269 63.4593 31.5656C63.1208 31.7042 62.8558 31.9613 62.7227 32.2801C62.5897 32.599 62.5993 32.9536 62.7496 33.2659L64.7356 37.8418Z" fill="white"/>
<path d="M56.0807 44.5081C56.2152 44.39 56.3223 44.2479 56.3955 44.0904C56.4687 43.9329 56.5065 43.7634 56.5065 43.592C56.5065 43.4207 56.4687 43.2511 56.3955 43.0936C56.3223 42.9362 56.2152 42.7941 56.0807 42.676L52.2541 39.1457C51.9886 38.9124 51.6348 38.7842 51.2682 38.7883C50.9017 38.7924 50.5514 38.9286 50.2921 39.1678C50.0329 39.4069 49.8853 39.7301 49.8808 40.0683C49.8763 40.4065 50.0153 40.7329 50.2682 40.9778L54.0948 44.5081C54.2228 44.6322 54.3769 44.7311 54.5475 44.7986C54.7182 44.8661 54.902 44.9009 55.0878 44.9009C55.2735 44.9009 55.4572 44.8661 55.6279 44.7986C55.7986 44.7311 55.9526 44.6322 56.0807 44.5081Z" fill="white"/>
<path d="M102.714 46.3353L106.541 42.805C106.676 42.6858 106.785 42.5428 106.86 42.3843C106.935 42.2259 106.974 42.0552 106.977 41.8824C106.979 41.7096 106.944 41.5381 106.873 41.378C106.802 41.2179 106.698 41.0725 106.565 40.9503C106.433 40.8281 106.275 40.7315 106.102 40.6663C105.928 40.6012 105.742 40.5687 105.555 40.5708C105.368 40.5729 105.183 40.6096 105.011 40.6786C104.839 40.7477 104.684 40.8477 104.555 40.9729L100.728 44.5031C100.475 44.7481 100.336 45.0745 100.341 45.4127C100.345 45.7509 100.493 46.0741 100.752 46.3132C101.012 46.5524 101.362 46.6886 101.728 46.6927C102.095 46.6968 102.449 46.5685 102.714 46.3353Z" fill="white"/>
<path d="M90.8109 39.6726C91.1491 39.8087 91.5318 39.8165 91.8762 39.6944C92.2206 39.5723 92.4991 39.3301 92.6515 39.0202L94.6375 34.4442C94.7119 34.2896 94.7526 34.123 94.7572 33.9538C94.7618 33.7847 94.7303 33.6164 94.6644 33.4585C94.5985 33.3006 94.4995 33.1562 94.3732 33.0336C94.2468 32.911 94.0954 32.8126 93.9278 32.7439C93.7602 32.6753 93.5796 32.6377 93.3962 32.6335C93.2129 32.6292 93.0305 32.6583 92.8593 32.7191C92.6882 32.7799 92.5318 32.8712 92.3989 32.9878C92.266 33.1043 92.1592 33.2439 92.0848 33.3986L90.0988 37.9745C89.9517 38.2871 89.944 38.6405 90.0772 38.9583C90.2105 39.2762 90.474 39.5328 90.8109 39.6726Z" fill="white"/>
<path opacity="0.2" d="M77.5 143.133C120.302 143.133 155 111.121 155 71.6337C155 32.1459 120.302 0.134766 77.5 0.134766C34.6979 0.134766 0 32.1459 0 71.6337C0 111.121 34.6979 143.133 77.5 143.133Z" fill="#32BB98"/>
<path d="M109.797 79.9383L103.016 65.9513C103.01 59.6371 100.317 53.5775 95.5147 49.0781C90.7128 44.5787 84.1873 41.9995 77.344 41.8964C71.0185 41.9025 64.9059 44.005 60.12 47.8207C55.3341 51.6365 52.1933 56.9115 51.2701 62.6847C50.7117 66.2556 51.0059 69.8959 52.132 73.3509C53.2582 76.8059 55.1892 79.9921 57.7898 82.6865C60.4121 85.8102 62.1201 89.5033 62.7498 93.4114V100.342C62.7498 100.69 62.8993 101.023 63.1654 101.268C63.4316 101.514 63.7926 101.652 64.169 101.652H77.4893V75.2417L75.5033 77.0739C75.3753 77.198 75.2213 77.2968 75.0506 77.3643C74.8799 77.4319 74.6962 77.4667 74.5104 77.4667C74.3247 77.4667 74.1409 77.4319 73.9702 77.3643C73.7995 77.2968 73.6455 77.198 73.5175 77.0739L69.1241 73.0208C68.8713 72.7759 68.7323 72.4495 68.7368 72.1113C68.7412 71.7731 68.8888 71.4498 69.1481 71.2107C69.4073 70.9715 69.7576 70.8354 70.1242 70.8312C70.4908 70.8271 70.8446 70.9554 71.1101 71.1886L74.5007 74.3167L77.8914 71.1886C78.1661 70.9665 78.519 70.844 78.8843 70.844C79.2497 70.844 79.6025 70.9665 79.8773 71.1886L83.2679 74.3167L86.6585 71.1886C86.924 70.9554 87.2778 70.8271 87.6444 70.8312C88.011 70.8354 88.3613 70.9715 88.6206 71.2107C88.8798 71.4498 89.0274 71.7731 89.0319 72.1113C89.0363 72.4495 88.8973 72.7759 88.6445 73.0208L84.2512 77.0739C84.1231 77.198 83.9691 77.2968 83.7984 77.3643C83.6277 77.4319 83.444 77.4667 83.2583 77.4667C83.0725 77.4667 82.8887 77.4319 82.7181 77.3643C82.5474 77.2968 82.3933 77.198 82.2653 77.0739L80.2793 75.2417V101.652H93.5996C93.9678 101.629 94.3145 101.483 94.5755 101.243C94.8364 101.002 94.9939 100.682 95.0188 100.342V92.2361H99.4121C100.59 92.2355 101.722 91.8123 102.568 91.0559C103.414 90.2996 103.908 89.2694 103.946 88.183V81.909H108.48C108.715 81.8784 108.94 81.7997 109.138 81.6785C109.336 81.5573 109.502 81.3968 109.624 81.2088C109.746 81.0207 109.821 80.8098 109.844 80.5915C109.866 80.3732 109.835 80.1531 109.753 79.9472L109.797 79.9383ZM69.1096 55.4901C66.1204 57.4651 64.0456 60.405 63.2972 63.7259C63.2664 63.9005 63.1969 64.0674 63.0932 64.2162C62.9894 64.3649 62.8535 64.4924 62.694 64.5905C62.5344 64.6886 62.3547 64.7553 62.166 64.7865C61.9772 64.8176 61.7835 64.8126 61.597 64.7716C61.2223 64.7004 60.8932 64.4958 60.681 64.2022C60.4688 63.9085 60.3906 63.5495 60.4635 63.2031C61.3631 59.2478 63.8404 55.7485 67.4046 53.3988C67.7064 53.2143 68.0733 53.1433 68.43 53.2002C68.7868 53.257 69.1065 53.4375 69.3238 53.7048C69.541 53.972 69.6393 54.3057 69.5986 54.6376C69.5579 54.9695 69.3812 55.2745 69.1048 55.4901H69.1096Z" fill="white"/>
<path d="M88.688 110.403H68.9884C68.7954 110.393 68.602 110.419 68.4203 110.48C68.2386 110.541 68.0725 110.635 67.9318 110.758C67.7911 110.88 67.679 111.028 67.6025 111.192C67.5259 111.355 67.4863 111.532 67.4863 111.71C67.4863 111.889 67.5259 112.065 67.6025 112.229C67.679 112.393 67.7911 112.54 67.9318 112.663C68.0725 112.785 68.2386 112.88 68.4203 112.941C68.602 113.002 68.7954 113.028 68.9884 113.017H88.688C89.0554 112.994 89.4015 112.85 89.6623 112.61C89.9231 112.37 90.0812 112.051 90.1072 111.712C90.1193 111.538 90.0908 111.362 90.0237 111.198C89.9567 111.034 89.8526 110.886 89.7183 110.762C89.584 110.638 89.4227 110.542 89.245 110.48C89.0673 110.418 88.8775 110.392 88.688 110.403Z" fill="white"/>
<path d="M91.0963 104.777H66.5822C66.3892 104.767 66.1959 104.793 66.0141 104.854C65.8324 104.915 65.6661 105.01 65.5255 105.132C65.3848 105.254 65.2727 105.402 65.1961 105.566C65.1195 105.73 65.0801 105.906 65.0801 106.085C65.0801 106.263 65.1195 106.439 65.1961 106.603C65.2727 106.767 65.3848 106.915 65.5255 107.037C65.6661 107.159 65.8324 107.254 66.0141 107.315C66.1959 107.376 66.3892 107.402 66.5822 107.392H91.0963C91.2854 107.403 91.475 107.376 91.6523 107.315C91.8296 107.253 91.9906 107.158 92.1248 107.034C92.259 106.911 92.3633 106.763 92.4307 106.599C92.4981 106.436 92.527 106.261 92.5157 106.087C92.5157 105.739 92.366 105.406 92.0999 105.161C91.8337 104.915 91.4727 104.777 91.0963 104.777Z" fill="white"/>
</g>
</svg>
