<svg width="155" height="155" viewBox="0 0 155 155" fill="none" xmlns="http://www.w3.org/2000/svg">
<g clipPath="url(#clip0_51_392)">
<mask id="mask0_51_392" style="mask-type:luminance" maskUnits="userSpaceOnUse" x="0" y="0" width="155" height="155">
<path d="M155 0H0V155H155V0Z" fill="white"/>
</mask>
<g mask="url(#mask0_51_392)">
<path opacity="0.2" d="M77.5 0C92.828 0 107.812 4.5453 120.557 13.0611C133.301 21.5769 143.235 33.6808 149.101 47.842C154.966 62.0033 156.501 77.586 153.511 92.6195C150.521 107.653 143.139 121.462 132.301 132.301C121.462 143.139 107.653 150.521 92.6195 153.511C77.586 156.501 62.0033 154.966 47.842 149.101C33.6808 143.235 21.5769 133.301 13.0611 120.557C4.5453 107.812 0 92.828 0 77.5C0 56.9457 8.16516 37.2333 22.6992 22.6992C37.2333 8.16516 56.9457 0 77.5 0Z" fill="#32BB98"/>
<path d="M92.0312 49.1352H77.5V60.1983C77.5 60.3576 77.4367 60.5104 77.3241 60.623C77.2115 60.7357 77.0587 60.7989 76.8994 60.7989H74.6471C74.6262 60.8025 74.6049 60.8025 74.5841 60.7989H74.526H74.4678H74.4097H74.3613L74.3129 60.7602C74.3012 60.7562 74.2905 60.7496 74.2817 60.7409C74.2729 60.7323 74.2661 60.7218 74.2619 60.7101C74.2577 60.6985 74.2562 60.6861 74.2574 60.6738C74.2587 60.6615 74.2628 60.6496 74.2693 60.6391C74.2511 60.6251 74.2348 60.6088 74.2208 60.5907C74.2208 60.5907 74.2207 60.5906 74.1965 60.5567C73.6996 59.8918 73.0059 59.4002 72.2138 59.1517C71.4218 58.9032 70.5716 58.9103 69.7838 59.1722C68.9961 59.434 68.3109 59.9373 67.8252 60.6105C67.3395 61.2837 67.0781 62.0928 67.0781 62.9229C67.0781 63.753 67.3395 64.5621 67.8252 65.2353C68.3109 65.9086 68.9961 66.4118 69.7838 66.6736C70.5716 66.9355 71.4218 66.9426 72.2138 66.6941C73.0059 66.4456 73.6996 65.954 74.1965 65.2891C74.2068 65.2795 74.215 65.268 74.2208 65.2552L74.2595 65.2067L74.308 65.1728C74.3219 65.1586 74.3384 65.1471 74.3565 65.1389C74.3703 65.1246 74.3868 65.1131 74.405 65.105H74.463H74.5211H74.5792H74.6422H76.8945C77.0534 65.1063 77.2055 65.17 77.3179 65.2823C77.4303 65.3947 77.4939 65.5467 77.4951 65.7057V78.2606H89.4398V76.9383C88.865 76.4562 88.4035 75.8535 88.0879 75.1729C87.7723 74.4923 87.6105 73.7505 87.6138 73.0003C87.6549 71.6589 88.2167 70.3862 89.1801 69.4519C90.1435 68.5175 91.4327 67.995 92.7748 67.995C94.1168 67.995 95.4062 68.5175 96.3696 69.4519C97.333 70.3862 97.8947 71.6589 97.9358 73.0003C97.9385 73.7509 97.7759 74.4929 97.4595 75.1735C97.143 75.8541 96.6805 76.4567 96.1049 76.9383V78.2606H106.562V63.7294C106.562 59.8755 105.032 56.1794 102.306 53.4543C99.5813 50.7291 95.8852 49.1981 92.0312 49.1981V49.1352Z" fill="white"/>
<path d="M58.8855 78.8032V81.0506C58.8895 81.0747 58.8895 81.0992 58.8855 81.1233C58.8891 81.1392 58.8891 81.1558 58.8855 81.1717C58.8892 81.1926 58.8892 81.2139 58.8855 81.2347V81.2832C58.8842 81.3025 58.8842 81.3219 58.8855 81.3413L58.8467 81.38C58.8467 81.38 58.8468 81.4139 58.8129 81.4285L58.7644 81.4672C58.758 81.4825 58.7459 81.4947 58.7305 81.5011C58.0656 81.9981 57.574 82.6918 57.3254 83.4838C57.0769 84.2759 57.0841 85.1261 57.346 85.9138C57.6078 86.7016 58.111 87.3869 58.7843 87.8726C59.4575 88.3582 60.2666 88.6196 61.0967 88.6196C61.9268 88.6196 62.7359 88.3582 63.4091 87.8726C64.0823 87.3869 64.5855 86.7016 64.8474 85.9138C65.1092 85.1261 65.1165 84.2759 64.8679 83.4838C64.6194 82.6918 64.1278 81.9981 63.4628 81.5011H63.4289L63.3805 81.4527C63.3805 81.4527 63.3805 81.4236 63.3466 81.4042C63.3127 81.3849 63.3466 81.4043 63.3127 81.3558C63.2985 81.3419 63.287 81.3255 63.2788 81.3074V81.2589C63.2803 81.2396 63.2803 81.2201 63.2788 81.2008C63.2803 81.1814 63.2803 81.162 63.2788 81.1427C63.2826 81.1186 63.2826 81.0941 63.2788 81.07V78.8225C63.2788 78.6632 63.3421 78.5104 63.4547 78.3978C63.5673 78.2852 63.7201 78.2219 63.8794 78.2219H76.4344V66.253H75.112C74.6318 66.8306 74.0296 67.2947 73.3488 67.6121C72.6679 67.9295 71.9253 68.0923 71.1741 68.0888C70.3068 68.0882 69.4537 67.8691 68.6934 67.4518C67.933 67.0345 67.2901 66.4324 66.8238 65.7011C66.3576 64.9698 66.083 64.1328 66.0256 63.2674C65.9681 62.402 66.1296 61.5361 66.4951 60.7496C66.8605 59.963 67.4182 59.2812 68.1167 58.767C68.8152 58.2529 69.6319 57.9229 70.4915 57.8077C71.3511 57.6924 72.2259 57.7955 73.0352 58.1075C73.8444 58.4195 74.562 58.9304 75.1217 59.5928H76.4392V49.1352H61.908C58.0541 49.1352 54.358 50.6661 51.6328 53.3913C48.9077 56.1164 47.3767 59.8125 47.3767 63.6664V78.1977H58.4447C58.5238 78.197 58.6022 78.2121 58.6753 78.2421C58.7485 78.272 58.815 78.3163 58.8709 78.3722C58.9268 78.4281 58.971 78.4945 59.001 78.5677C59.0309 78.6408 59.046 78.7193 59.0453 78.7983L58.8855 78.8032Z" fill="white"/>
<path d="M79.2098 96.8271C79.2098 96.8271 79.2098 96.8271 79.2438 96.8271C79.2629 96.8229 79.2827 96.8229 79.3018 96.8271H79.3406C79.3406 96.8271 79.3406 96.8271 79.3794 96.8271C79.4181 96.8271 79.4133 96.8272 79.4181 96.866C79.4234 96.8634 79.4292 96.862 79.435 96.862C79.4409 96.862 79.4467 96.8634 79.452 96.866L79.5004 96.9143C79.4984 96.9255 79.4984 96.9371 79.5004 96.9483C79.8665 97.4434 80.3441 97.8452 80.8945 98.1213C81.4449 98.3973 82.0526 98.5397 82.6683 98.5371C83.7172 98.5371 84.7231 98.1203 85.4648 97.3786C86.2065 96.6369 86.6232 95.6309 86.6232 94.582C86.6232 93.5331 86.2065 92.5273 85.4648 91.7856C84.7231 91.0439 83.7172 90.6271 82.6683 90.6271C82.0526 90.6244 81.4449 90.7669 80.8945 91.0429C80.3441 91.3189 79.8665 91.7208 79.5004 92.2159L79.452 92.274C79.452 92.274 79.452 92.274 79.4181 92.274C79.4091 92.2891 79.3956 92.3011 79.3794 92.308H79.3406C79.328 92.3035 79.3144 92.3035 79.3018 92.308H79.2438H79.2098C79.1858 92.3036 79.1612 92.3036 79.1372 92.308H76.8897C76.7307 92.3067 76.5787 92.2429 76.4664 92.1306C76.354 92.0182 76.2903 91.8663 76.2891 91.7074V79.3897H64.3444V80.712C64.9203 81.1934 65.3829 81.796 65.6994 82.4766C66.0159 83.1573 66.1784 83.8994 66.1753 84.65C66.1342 85.9914 65.5724 87.2641 64.609 88.1984C63.6456 89.1327 62.3563 89.6553 61.0143 89.6553C59.6722 89.6553 58.3829 89.1327 57.4195 88.1984C56.4561 87.2641 55.8943 85.9914 55.8532 84.65C55.8502 83.8994 56.0127 83.1573 56.3291 82.4766C56.6456 81.796 57.1083 81.1934 57.6842 80.712V79.3897H47.2266V93.921C47.2266 97.7749 48.7575 101.471 51.4827 104.196C54.2078 106.921 57.9039 108.452 61.7578 108.452H76.2891V97.389C76.2884 97.3099 76.3035 97.2315 76.3335 97.1584C76.3634 97.0852 76.4076 97.0188 76.4635 96.9629C76.5194 96.907 76.5859 96.8628 76.6591 96.8329C76.7322 96.8029 76.8106 96.7877 76.8897 96.7884H79.142H79.2049L79.2098 96.8271Z" fill="white"/>
<path d="M94.8938 78.804V76.6001C94.8938 76.6001 94.8938 76.5661 94.8938 76.5516C94.8896 76.5325 94.8896 76.5127 94.8938 76.4935C94.8938 76.4935 94.8938 76.4548 94.8938 76.4354V76.3773C94.8891 76.3582 94.8891 76.3382 94.8938 76.3192V76.2707L94.9325 76.2126L94.9665 76.1739L95.0148 76.1254H95.0488C95.7138 75.6284 96.2053 74.9347 96.4539 74.1427C96.7024 73.3506 96.6952 72.5004 96.4333 71.7127C96.1715 70.9249 95.6683 70.2396 94.995 69.7539C94.3218 69.2682 93.5128 69.0069 92.6827 69.0069C91.8526 69.0069 91.0434 69.2682 90.3702 69.7539C89.697 70.2396 89.1938 70.9249 88.9319 71.7127C88.6701 72.5004 88.6629 73.3506 88.9114 74.1427C89.1599 74.9347 89.6515 75.6284 90.3164 76.1254V76.1593C90.3388 76.1669 90.359 76.1803 90.3746 76.198L90.4085 76.2465C90.44 76.2949 90.44 76.2949 90.4715 76.3433C90.4731 76.3627 90.4731 76.3822 90.4715 76.4015C90.4731 76.4208 90.4731 76.4402 90.4715 76.4596C90.4724 76.479 90.4724 76.4984 90.4715 76.5178C90.4677 76.5386 90.4677 76.5599 90.4715 76.5807V78.8282C90.4715 78.9884 90.4085 79.1422 90.2961 79.2563C90.1838 79.3705 90.031 79.436 89.8709 79.4385H77.5145V91.3832H78.8319C78.8941 91.3071 78.9605 91.2343 79.0305 91.1653C79.0496 91.1394 79.0706 91.1151 79.0935 91.0925L79.2388 90.9569C79.2642 90.9275 79.2917 90.9 79.3211 90.8746C79.3696 90.8358 79.4084 90.7923 79.4568 90.7632C79.4854 90.7316 79.5179 90.7039 79.5537 90.6809C79.5924 90.647 79.636 90.6082 79.6796 90.5792L79.7813 90.5065L79.9072 90.4096C79.9426 90.3855 79.9799 90.3645 80.0187 90.3466C80.0574 90.3127 80.1059 90.2885 80.1446 90.2594L80.2657 90.1965L80.4013 90.1238L80.5127 90.0657L80.658 89.9931L80.7791 89.9446C80.8259 89.9213 80.8745 89.9019 80.9244 89.8865L81.0455 89.8381L81.1956 89.7896L81.3216 89.7509C81.3703 89.7332 81.4206 89.7203 81.4718 89.7121C81.5122 89.6958 81.5545 89.6844 81.5977 89.6782C81.6498 89.6619 81.7033 89.6505 81.7575 89.6443H81.8787H82.053C82.09 89.64 82.1274 89.64 82.1644 89.6443C82.229 89.6404 82.2937 89.6404 82.3582 89.6443H82.4647C82.5615 89.6443 82.6584 89.6443 82.7602 89.6443C84.1283 89.6443 85.4405 90.1878 86.4079 91.1552C87.3753 92.1226 87.9188 93.4347 87.9188 94.8029C87.9188 96.171 87.3753 97.4831 86.4079 98.4506C85.4405 99.418 84.1283 99.9615 82.7602 99.9615C82.6536 99.9615 82.5615 99.9615 82.4647 99.9615H82.3678C82.3017 99.966 82.2354 99.966 82.1693 99.9615C82.1323 99.9658 82.0949 99.9658 82.0579 99.9615H81.8834H81.7624C81.7084 99.9539 81.655 99.9426 81.6026 99.9276L81.4766 99.8936L81.3265 99.8549L81.2005 99.8162L81.0503 99.7677L80.9293 99.7193C80.8797 99.7048 80.8312 99.687 80.784 99.666L80.6629 99.6176L80.5176 99.5449L80.4061 99.4868L80.2706 99.4141L80.1494 99.3511C80.1106 99.3172 80.0622 99.2979 80.0234 99.264C79.9848 99.2457 79.9477 99.2246 79.9121 99.201L79.7862 99.1041L79.6845 99.0315C79.6391 99.002 79.5969 98.968 79.5585 98.9298L79.4568 98.8474L79.326 98.736C79.2967 98.7105 79.2692 98.683 79.2437 98.6537C79.1946 98.6125 79.1491 98.5671 79.108 98.518L79.0354 98.4454C78.9642 98.3789 78.8993 98.3059 78.8416 98.2274H77.5145V108.685H92.0457C95.8997 108.685 99.5957 107.154 102.321 104.429C105.046 101.704 106.577 98.0077 106.577 94.1538V79.6226H95.5137C95.434 79.6238 95.3549 79.6093 95.2809 79.5797C95.2069 79.5501 95.1396 79.506 95.0828 79.4501C95.026 79.3942 94.9809 79.3276 94.9501 79.254C94.9193 79.1805 94.9035 79.1017 94.9035 79.022L94.8938 78.804Z" fill="white"/>
</g>
</g>
<defs>
<clipPath id="clip0_51_392">
<rect width="155" height="155" fill="white"/>
</clipPath>
</defs>
</svg>
