<svg width="155" height="155" viewBox="0 0 155 155" fill="none" xmlns="http://www.w3.org/2000/svg">
<g clip-path="url(#clip0_51_407)">
<path opacity="0.2" d="M77.5 0C92.828 0 107.812 4.5453 120.557 13.0611C133.301 21.5769 143.235 33.6808 149.101 47.842C154.966 62.0033 156.501 77.586 153.511 92.6195C150.521 107.653 143.139 121.462 132.301 132.301C121.462 143.139 107.653 150.521 92.6195 153.511C77.586 156.501 62.0033 154.966 47.842 149.101C33.6808 143.235 21.5769 133.301 13.0611 120.557C4.5453 107.812 0 92.828 0 77.5C0 56.9457 8.16516 37.2333 22.6992 22.6992C37.2333 8.16516 56.9457 0 77.5 0Z" fill="#32BB98"/>
<path d="M77.5 115.039C84.9245 115.039 92.1823 112.837 98.3556 108.713C104.529 104.588 109.34 98.725 112.182 91.8656C115.023 85.0062 115.766 77.4584 114.318 70.1765C112.869 62.8946 109.294 56.2058 104.044 50.9559C98.7942 45.706 92.1054 42.1307 84.8235 40.6823C77.5416 39.2338 69.9938 39.9772 63.1344 42.8184C56.2751 45.6597 50.4123 50.4712 46.2874 56.6444C42.1626 62.8177 39.9609 70.0755 39.9609 77.5C39.9609 87.456 43.9159 97.0042 50.9559 104.044C57.9958 111.084 67.544 115.039 77.5 115.039Z" fill="white"/>
<path d="M77.5 104.31C72.1965 104.31 67.0121 102.738 62.6024 99.791C58.1927 96.8446 54.7557 92.6566 52.7262 87.7568C50.6966 82.857 50.1656 77.4654 51.2003 72.2638C52.2349 67.0622 54.7888 62.2843 58.5389 58.5341C62.2891 54.784 67.0671 52.2301 72.2687 51.1954C77.4703 50.1608 82.8619 50.6918 87.7617 52.7214C92.6615 54.7509 96.8494 58.1879 99.7959 62.5976C102.742 67.0073 104.315 72.1917 104.315 77.4952C104.315 84.607 101.49 91.4275 96.4611 96.4563C91.4323 101.485 84.6118 104.31 77.5 104.31Z" fill="#D6F1EA"/>
<path d="M78.3622 87.7493L85.6278 91.7212C85.7516 91.79 85.8953 91.8139 86.0347 91.789C86.2397 91.7363 86.4159 91.6054 86.5255 91.4243C86.635 91.2432 86.6693 91.0263 86.6208 90.8203L85.2112 82.426C85.1646 82.1485 85.1842 81.864 85.2684 81.5955C85.3526 81.327 85.4989 81.0821 85.6956 80.8809L91.5565 74.9231C91.6842 74.7909 91.7658 74.621 91.789 74.4387C91.8282 74.2355 91.787 74.0249 91.674 73.8515C91.5611 73.678 91.3853 73.5551 91.1836 73.5087L83.0897 72.2832C82.8003 72.2392 82.5261 72.1247 82.2913 71.9498C82.0565 71.775 81.8683 71.5452 81.7431 71.2806L78.12 63.6275C78.0512 63.4744 77.9337 63.3483 77.7858 63.269C77.7039 63.2294 77.6148 63.2071 77.524 63.2036C77.4331 63.2001 77.3425 63.2154 77.2579 63.2487C77.1733 63.2819 77.0965 63.3322 77.0323 63.3966C76.968 63.461 76.9178 63.5379 76.8848 63.6226L73.2617 71.2806C73.1365 71.5452 72.9483 71.775 72.7135 71.9498C72.4787 72.1247 72.2045 72.2392 71.9151 72.2832L63.8164 73.5135C63.6674 73.5373 63.5309 73.6107 63.4289 73.7218C63.2791 73.886 63.1961 74.1002 63.1961 74.3225C63.1961 74.5447 63.2791 74.7589 63.4289 74.9231L69.2898 80.8809C69.4865 81.0821 69.6329 81.327 69.717 81.5955C69.8012 81.864 69.8208 82.1485 69.7742 82.426L68.4083 90.8396C68.3772 91.0278 68.406 91.2209 68.4906 91.3918C68.5254 91.4755 68.5771 91.5511 68.6426 91.6137C68.7081 91.6764 68.7859 91.7247 68.8711 91.7557C68.9563 91.7866 69.0469 91.7996 69.1374 91.7936C69.2278 91.7877 69.316 91.763 69.3964 91.7212L76.662 87.7493C76.9231 87.6082 77.2153 87.5342 77.5121 87.5342C77.8089 87.5342 78.1011 87.6082 78.3622 87.7493Z" fill="white"/>
</g>
<defs>
<clipPath id="clip0_51_407">
<rect width="155" height="155" fill="white"/>
</clipPath>
</defs>
</svg>
