<svg width="158" height="44" viewBox="0 0 158 44" fill="none" xmlns="http://www.w3.org/2000/svg">
<g clipPath="url(#clip0_28_181)">
<g clipPath="url(#clip1_28_181)">
<g clipPath="url(#clip2_28_181)">
<mask id="mask0_28_181" style="mask-type:luminance" maskUnits="userSpaceOnUse" x="0" y="0" width="158" height="44">
<path d="M157.227 0H0.503487V43.59H157.227V0Z" fill="white"/>
</mask>
<g mask="url(#mask0_28_181)">
<mask id="mask1_28_181" style="mask-type:luminance" maskUnits="userSpaceOnUse" x="0" y="0" width="158" height="44">
<path d="M157.227 0H0.503487V43.59H157.227V0Z" fill="white"/>
</mask>
<g mask="url(#mask1_28_181)">
<path fill-rule="evenodd" clip-rule="evenodd" d="M26.0756 38.6374C14.6295 36.1544 8.27226 32.8961 7.00374 28.8626C5.71789 24.8477 9.56545 20.8318 18.5464 16.8149C6.5178 21.0418 0.653472 25.419 0.953437 29.9464C1.26873 34.4559 7.70533 38.0925 20.2632 40.8562C29.8368 42.6617 39.5575 43.5732 49.2999 43.5789C60.0746 43.6869 70.8438 43.0522 81.5312 41.6791C91.2021 40.5102 100.744 38.45 110.036 35.5248C112.273 34.7835 114.298 34.017 116.112 33.2251C116.027 33.259 115.938 33.2858 115.848 33.305C106.561 36.2462 97.0171 38.3071 87.3435 39.4603C76.6562 40.8331 65.8879 41.4772 55.1132 41.3881C45.37 41.3835 35.6488 40.4639 26.0776 38.6414" fill="#57D4BA"/>
<path fill-rule="evenodd" clip-rule="evenodd" d="M130.801 3.73757C117.674 1.26331 104.345 0.016738 90.9871 0.0139999C76.2292 -0.128456 61.479 0.745511 46.8412 2.6297C33.5839 4.20663 20.5029 7.01853 7.76865 11.0287C5.12496 11.9273 2.70323 12.8352 0.503487 13.7524C0.978099 13.5751 1.46238 13.4085 1.95632 13.2525C14.6918 9.24016 27.772 6.41773 41.0288 4.82145C55.6758 2.93785 70.4349 2.06422 85.2018 2.20675C98.5512 2.21002 111.871 3.45727 124.989 5.93232C140.854 9.38259 149.572 13.9177 151.143 19.5378C152.728 25.1551 147.101 30.7381 134.26 36.2868C150.165 30.5275 157.809 24.5922 157.194 18.4809C156.578 12.3696 147.78 7.45515 130.801 3.73757Z" fill="#32BB98"/>
<path d="M19.7723 25.3893L22.125 24.2994C22.3064 25.0429 22.7413 25.6999 23.3549 26.1572C24.0277 26.6047 24.8252 26.8274 25.6326 26.7931C26.3948 26.8342 27.1425 26.573 27.7134 26.0662C27.974 25.812 28.1779 25.5055 28.3116 25.1669C28.4454 24.8283 28.5059 24.4651 28.4893 24.1014C28.4893 23.0402 27.6057 22.091 25.8386 21.2538C25.5906 21.1338 25.4006 21.0428 25.2686 20.9808C23.7814 20.3592 22.4245 19.4631 21.2691 18.3391C20.6 17.5276 20.2483 16.5008 20.2792 15.4494C20.2536 14.778 20.3746 14.109 20.6336 13.4889C20.8926 12.8689 21.2834 12.3126 21.779 11.8588C22.8677 10.9078 24.2815 10.4138 25.7256 10.48C26.8916 10.4395 28.0476 10.7071 29.0772 11.2559C29.9527 11.7419 30.6197 12.532 30.952 13.4767L28.6523 14.6655C28.3517 14.1646 27.9414 13.7383 27.4524 13.4187C27.0013 13.149 26.484 13.0105 25.9586 13.0187C25.2732 12.9823 24.5989 13.203 24.0678 13.6376C23.8372 13.8463 23.6555 14.1032 23.5355 14.3901C23.4156 14.677 23.3604 14.9868 23.3739 15.2975C23.3739 16.3873 24.3977 17.4029 26.4455 18.3441L26.8165 18.5171C28.1956 19.0647 29.4486 19.8877 30.499 20.9358C31.1851 21.7646 31.5437 22.8162 31.5069 23.8915C31.5438 24.6513 31.4177 25.4102 31.1371 26.1173C30.8566 26.8243 30.428 27.4632 29.8801 27.991C28.6761 29.0495 27.1055 29.5947 25.5046 29.5098C24.157 29.5688 22.8258 29.1957 21.7051 28.4449C20.7016 27.7034 20.0101 26.6148 19.7653 25.3913M34.2776 12.2048C34.2757 11.9842 34.3191 11.7656 34.4051 11.5625C34.4911 11.3594 34.6179 11.1761 34.7776 11.0239C35.0939 10.7076 35.523 10.5298 35.9704 10.5298C36.4178 10.5298 36.8469 10.7076 37.1633 11.0239C37.4796 11.3403 37.6574 11.7694 37.6574 12.2168C37.6574 12.6642 37.4796 13.0933 37.1633 13.4097C37.0095 13.5686 36.8245 13.6939 36.6199 13.7777C36.4152 13.8615 36.1955 13.902 35.9744 13.8966C35.7521 13.8967 35.5319 13.8531 35.3265 13.768C35.121 13.683 34.9343 13.5583 34.7771 13.4011C34.6199 13.2439 34.4952 13.0572 34.4102 12.8518C34.3252 12.6463 34.2815 12.4261 34.2816 12.2038M34.6366 17.2812H37.3283V29.0219H34.6326L34.6366 17.2812Z" fill="white"/>
<path d="M41.1468 29.0217V17.2821H43.6735V19.1999C44.1426 18.4559 44.7974 17.847 45.5733 17.4331C46.3992 17.0374 47.3077 16.8451 48.223 16.8721C48.9876 16.8502 49.7479 16.9938 50.4518 17.2931C50.9351 17.5008 51.3602 17.8239 51.6897 18.2341C52.0191 18.6443 52.243 19.129 52.3415 19.6458C52.4579 20.3911 52.5051 21.1456 52.4825 21.8996V29.0247H49.7668V22.9864C49.87 21.9303 49.6757 20.8663 49.2059 19.9148C48.9587 19.6357 48.6479 19.4202 48.2998 19.2865C47.9518 19.1529 47.5766 19.105 47.2061 19.1469C46.6261 19.137 46.0511 19.2554 45.5223 19.4938C45.0529 19.7068 44.6525 20.0469 44.3665 20.4757C44.1503 20.8013 44.0093 21.1708 43.9535 21.5576C43.8593 22.258 43.8205 22.9648 43.8375 23.6714V29.0207L41.1468 29.0217Z" fill="white"/>
<path d="M64.4941 23.1104C64.5545 22.0958 64.2534 21.0925 63.6442 20.2788C63.3531 19.9396 62.9882 19.6717 62.5774 19.4956C62.1666 19.3195 61.7209 19.2399 61.2745 19.2629C60.821 19.2421 60.3687 19.3257 59.9527 19.5074C59.5366 19.6891 59.1678 19.964 58.8748 20.3108C58.252 21.1444 57.9448 22.1718 58.0079 23.2104C57.941 24.2427 58.2394 25.2656 58.8508 26.1001C59.1545 26.4273 59.5238 26.6867 59.9345 26.8616C60.3452 27.0364 60.7882 27.1228 61.2345 27.1149C61.6809 27.1071 62.1206 27.0053 62.5249 26.8161C62.9293 26.627 63.2892 26.3547 63.5812 26.0171C64.2229 25.1885 64.5476 24.1582 64.4971 23.1114M67.1059 28.2879C67.1059 30.5876 66.6462 32.2057 65.727 33.1423C64.8078 34.0789 63.2666 34.5455 61.1035 34.5421C59.7352 34.6107 58.3794 34.2529 57.223 33.5182C56.7704 33.2246 56.3988 32.8222 56.142 32.3477C55.8852 31.8733 55.7515 31.342 55.7532 30.8026L58.6348 30.7936C58.6494 31.0286 58.7219 31.2563 58.8457 31.4566C58.9696 31.6569 59.141 31.8234 59.3447 31.9414C59.8997 32.2367 60.5248 32.375 61.1525 32.3414C62.0435 32.4253 62.9313 32.1524 63.6213 31.5825C64.1966 30.8752 64.4748 29.9722 64.3971 29.0638L64.4222 27.4949C63.9913 28.1293 63.4137 28.6504 62.7383 29.0138C62.0564 29.356 61.3015 29.5276 60.5386 29.5137C59.7986 29.548 59.0606 29.4127 58.3809 29.1181C57.7012 28.8235 57.0979 28.3774 56.6171 27.8139C55.5989 26.4744 55.0928 24.8152 55.1902 23.1354C55.1135 21.4976 55.6328 19.8874 56.6521 18.603C57.4196 17.7382 58.4555 17.1565 59.5934 16.9514C60.7313 16.7463 61.9052 16.9297 62.9263 17.4721C63.6008 17.8671 64.1259 18.4738 64.4202 19.1979V17.2821H67.1038L67.1059 28.2879Z" fill="white"/>
<path d="M73.4191 17.2822V23.8955C73.3358 24.7716 73.5857 25.647 74.1191 26.3472C74.785 26.8306 75.5869 27.0909 76.4098 27.0909C77.2327 27.0909 78.0346 26.8306 78.7005 26.3472C79.2391 25.6493 79.4928 24.7731 79.4104 23.8955V17.2822H82.1051V23.0816C82.1051 25.3273 81.6538 26.9605 80.7513 27.981C80.1859 28.5318 79.508 28.9536 78.764 29.2173C78.0201 29.4811 77.2278 29.5805 76.4418 29.5088C75.6494 29.5821 74.8504 29.4851 74.0985 29.2243C73.3467 28.9636 72.6592 28.5451 72.0823 27.997C71.1844 26.9858 70.7358 25.3483 70.7364 23.0846V17.2852L73.4191 17.2822Z" fill="white"/>
<path d="M88.5434 9.82666H85.8517V29.0215H88.5434V9.82666Z" fill="white"/>
<path d="M103.413 29.0216H100.73V27.4977C100.299 28.1321 99.7215 28.6532 99.0462 29.0166C98.3642 29.3588 97.6093 29.5303 96.8464 29.5165C96.1064 29.551 95.3684 29.4157 94.6887 29.1211C94.009 28.8265 93.4056 28.3803 92.9249 27.8167C91.9077 26.4789 91.4014 24.8221 91.497 23.1442C91.4202 21.5065 91.9392 19.8964 92.9579 18.6117C93.7254 17.747 94.7613 17.1653 95.8993 16.9602C97.0372 16.7551 98.211 16.9385 99.2322 17.4809C99.907 17.8756 100.433 18.4824 100.727 19.2067V17.2819H103.41L103.413 29.0216ZM100.804 23.1102C100.864 22.0955 100.563 21.0923 99.9541 20.2786C99.6629 19.9395 99.2979 19.6716 98.8872 19.4955C98.4764 19.3194 98.0307 19.2397 97.5843 19.2627C97.1308 19.2418 96.6785 19.3254 96.2624 19.5071C95.8463 19.6888 95.4776 19.9637 95.1846 20.3106C94.5618 21.1442 94.2547 22.1716 94.3177 23.2102C94.2509 24.2425 94.5493 25.2654 95.1606 26.0999C95.4644 26.427 95.8336 26.6865 96.2444 26.8614C96.6551 27.0362 97.0981 27.1226 97.5444 27.1147C97.9907 27.1069 98.4304 27.0051 98.8347 26.8159C99.2391 26.6268 99.599 26.3545 99.8911 26.0169C100.533 25.1883 100.857 24.158 100.807 23.1112" fill="white"/>
<path d="M109.819 19.1469C110.031 18.4793 110.425 17.8845 110.958 17.4301C111.465 17.0466 112.089 16.8487 112.725 16.8691C113.103 16.8696 113.48 16.9166 113.847 17.0091C114.222 17.1014 114.584 17.2356 114.928 17.4091L113.962 19.6878C113.735 19.5248 113.481 19.4017 113.212 19.3238C112.923 19.238 112.622 19.1962 112.321 19.1998C111.931 19.1742 111.542 19.2618 111.2 19.4521C110.859 19.6425 110.58 19.9275 110.397 20.2727C109.934 21.4134 109.737 22.6442 109.82 23.8723V29.0237H107.128V17.2571H109.82L109.819 19.1469Z" fill="white"/>
<path d="M116.254 12.2048C116.252 11.9842 116.296 11.7656 116.382 11.5625C116.468 11.3593 116.594 11.176 116.754 11.0239C117.071 10.7075 117.5 10.5298 117.947 10.5298C118.394 10.5298 118.824 10.7075 119.14 11.0239C119.456 11.3403 119.634 11.7693 119.634 12.2167C119.634 12.6642 119.456 13.0932 119.14 13.4096C118.986 13.5685 118.801 13.6939 118.596 13.7777C118.392 13.8615 118.172 13.902 117.951 13.8966C117.502 13.8966 117.071 13.7182 116.754 13.4007C116.437 13.0833 116.258 12.6527 116.258 12.2038M116.613 17.2812H119.305V29.0218H116.613V17.2812Z" fill="white"/>
<path d="M123.762 29.0217V19.6347H121.707V17.282H123.762V12.8325H126.446V17.282H128.502V19.6347H126.446V29.0217H123.762Z" fill="white"/>
<path d="M132.827 34.5453H130.062L133.281 28.007L128.972 17.2822H131.943L134.098 23.3586C134.223 23.7345 134.333 24.1141 134.428 24.4974C134.521 24.8774 134.597 25.2653 134.659 25.6613C134.863 24.9871 135.119 24.3301 135.427 23.6965L135.485 23.5475L138.385 17.2812H141.299L132.827 34.5453Z" fill="white"/>
</g>
</g>
</g>
</g>
</g>
<defs>
<clipPath id="clip0_28_181">
<rect width="156.73" height="43.59" fill="white" transform="translate(0.5)"/>
</clipPath>
<clipPath id="clip1_28_181">
<rect width="156.73" height="43.59" fill="white" transform="translate(0.5)"/>
</clipPath>
<clipPath id="clip2_28_181">
<rect width="156.723" height="43.59" fill="white" transform="translate(0.503487)"/>
</clipPath>
</defs>
</svg>
