<svg width="64" height="64" viewBox="0 0 64 64" fill="none" xmlns="http://www.w3.org/2000/svg">
<path d="M32 0.3125C25.7328 0.3125 19.6064 2.17094 14.3954 5.65281C9.1844 9.13467 5.12293 14.0836 2.72458 19.8737C0.32623 25.6639 -0.301289 32.0352 0.921381 38.1819C2.14405 44.3287 5.16199 49.9749 9.59357 54.4064C14.0251 58.838 19.6713 61.856 25.8181 63.0786C31.9649 64.3013 38.3362 63.6738 44.1263 61.2754C49.9164 58.8771 54.8653 54.8156 58.3472 49.6046C61.8291 44.3936 63.6875 38.2672 63.6875 32C63.6786 23.5987 60.3373 15.544 54.3967 9.60335C48.456 3.66272 40.4013 0.321372 32 0.3125ZM32 46.625C29.1075 46.625 26.2799 45.7673 23.8748 44.1602C21.4697 42.5532 19.5952 40.2691 18.4883 37.5967C17.3813 34.9244 17.0917 31.9838 17.656 29.1468C18.2203 26.3098 19.6132 23.7039 21.6586 21.6586C23.7039 19.6132 26.3098 18.2203 29.1468 17.656C31.9838 17.0917 34.9244 17.3813 37.5968 18.4883C40.2691 19.5952 42.5532 21.4697 44.1603 23.8748C45.7673 26.2799 46.625 29.1074 46.625 32C46.621 35.8776 45.0788 39.5951 42.337 42.337C39.5952 45.0788 35.8776 46.621 32 46.625ZM43.9468 16.6041C41.192 14.4509 37.9064 13.0823 34.4375 12.6432V5.30023C39.8467 5.78751 44.9786 7.91338 49.1478 11.394L43.9468 16.6041ZM29.5625 12.6584C26.0937 13.0975 22.808 14.4661 20.0532 16.6194L14.8522 11.4031C19.0214 7.92252 24.1533 5.79666 29.5625 5.30938V12.6584ZM16.6042 20.0532C14.4509 22.808 13.0823 26.0937 12.6432 29.5625H5.30025C5.78753 24.1533 7.9134 19.0214 11.394 14.8522L16.6042 20.0532ZM12.6585 34.4375C13.0975 37.9063 14.4661 41.192 16.6194 43.9468L11.4031 49.1478C7.92254 44.9786 5.79667 39.8467 5.30939 34.4375H12.6585ZM20.0532 47.3959C22.8097 49.5437 26.0952 50.9069 29.5625 51.3416V58.6998C24.1533 58.2125 19.0214 56.0866 14.8522 52.606L20.0532 47.3959ZM34.4375 51.3416C37.9048 50.9069 41.1903 49.5437 43.9468 47.3959L49.1478 52.5969C44.9786 56.0775 39.8467 58.2033 34.4375 58.6906V51.3416ZM47.3959 43.9468C49.5437 41.1903 50.907 37.9048 51.3416 34.4375H58.6998C58.2125 39.8467 56.0866 44.9786 52.606 49.1478L47.3959 43.9468ZM51.3416 29.5625C50.907 26.0952 49.5437 22.8097 47.3959 20.0532L52.5969 14.8522C56.0775 19.0214 58.2034 24.1533 58.6906 29.5625H51.3416Z" fill="url(#paint0_linear_13_237)" fill-opacity="0.36"/>
<defs>
<linearGradient id="paint0_linear_13_237" x1="32" y1="0.3125" x2="32" y2="63.6875" gradientUnits="userSpaceOnUse">
<stop stop-color="white"/>
<stop offset="1" stop-color="white" stop-opacity="0.36"/>
</linearGradient>
</defs>
</svg>
