<svg width="69" height="60" viewBox="0 0 69 60" fill="none" xmlns="http://www.w3.org/2000/svg">
<path d="M27.25 22.6875C27.25 22.041 27.5068 21.421 27.9639 20.9639C28.421 20.5068 29.041 20.25 29.6875 20.25H49.1875C49.834 20.25 50.454 20.5068 50.9111 20.9639C51.3682 21.421 51.625 22.041 51.625 22.6875C51.625 23.334 51.3682 23.954 50.9111 24.4111C50.454 24.8682 49.834 25.125 49.1875 25.125H29.6875C29.041 25.125 28.421 24.8682 27.9639 24.4111C27.5068 23.954 27.25 23.334 27.25 22.6875ZM29.6875 34.875H49.1875C49.834 34.875 50.454 34.6182 50.9111 34.1611C51.3682 33.704 51.625 33.084 51.625 32.4375C51.625 31.791 51.3682 31.171 50.9111 30.7139C50.454 30.2568 49.834 30 49.1875 30H29.6875C29.041 30 28.421 30.2568 27.9639 30.7139C27.5068 31.171 27.25 31.791 27.25 32.4375C27.25 33.084 27.5068 33.704 27.9639 34.1611C28.421 34.6182 29.041 34.875 29.6875 34.875ZM68.6875 49.5C68.6875 52.0859 67.6603 54.5658 65.8318 56.3943C64.0033 58.2228 61.5234 59.25 58.9375 59.25H24.8125C22.2266 59.25 19.7467 58.2228 17.9182 56.3943C16.0897 54.5658 15.0625 52.0859 15.0625 49.5V10.5C15.0625 9.20707 14.5489 7.96709 13.6346 7.05285C12.7204 6.13861 11.4804 5.625 10.1875 5.625C8.89457 5.625 7.65459 6.13861 6.74035 7.05285C5.82611 7.96709 5.3125 9.20707 5.3125 10.5C5.3125 12.2489 6.78414 13.4311 6.79937 13.4433C7.20279 13.7537 7.49888 14.1827 7.64612 14.67C7.79336 15.1572 7.78435 15.6784 7.62036 16.1603C7.45636 16.6422 7.14562 17.0606 6.73172 17.3569C6.31782 17.6533 5.82153 17.8126 5.3125 17.8125C4.78539 17.8134 4.27259 17.6411 3.85305 17.322C3.49961 17.063 0.4375 14.6468 0.4375 10.5C0.4375 7.91414 1.46473 5.43419 3.29321 3.60571C5.12169 1.77723 7.60164 0.75 10.1875 0.75H51.625C54.2109 0.75 56.6908 1.77723 58.5193 3.60571C60.3478 5.43419 61.375 7.91414 61.375 10.5V42.1875H63.8125C64.3399 42.1875 64.8531 42.3586 65.275 42.675C65.6406 42.937 68.6875 45.3532 68.6875 49.5ZM27.3292 43.8572C27.4958 43.3656 27.8136 42.9393 28.2372 42.6394C28.6608 42.3395 29.1685 42.1813 29.6875 42.1875H56.5V10.5C56.5 9.20707 55.9864 7.96709 55.0721 7.05285C54.1579 6.13861 52.9179 5.625 51.625 5.625H18.6243C19.4864 7.10489 19.9396 8.78733 19.9375 10.5V49.5C19.9375 50.7929 20.4511 52.0329 21.3654 52.9471C22.2796 53.8614 23.5196 54.375 24.8125 54.375C26.1054 54.375 27.3454 53.8614 28.2596 52.9471C29.1739 52.0329 29.6875 50.7929 29.6875 49.5C29.6875 47.7511 28.2159 46.5689 28.2006 46.5567C27.7852 46.2596 27.4763 45.8368 27.3194 45.3508C27.1625 44.8647 27.166 44.3411 27.3292 43.8572ZM63.8125 49.5C63.782 48.5969 63.4335 47.7336 62.8284 47.0625H34.1877C34.4327 47.8518 34.557 48.6736 34.5564 49.5C34.5587 51.2119 34.1078 52.8939 33.2493 54.375H58.9375C60.2304 54.375 61.4704 53.8614 62.3846 52.9471C63.2989 52.0329 63.8125 50.7929 63.8125 49.5Z" fill="url(#paint0_linear_1_11)" fill-opacity="0.36"/>
<defs>
<linearGradient id="paint0_linear_1_11" x1="34.5625" y1="0.75" x2="34.5625" y2="59.25" gradientUnits="userSpaceOnUse">
<stop stop-color="white"/>
<stop offset="1" stop-color="white" stop-opacity="0.36"/>
</linearGradient>
</defs>
</svg>
