<svg width="74" height="60" viewBox="0 0 74 60" fill="none" xmlns="http://www.w3.org/2000/svg">
<path d="M71.5625 54.375H66.6875V20.25C67.334 20.25 67.954 19.9932 68.4111 19.5361C68.8682 19.079 69.125 18.459 69.125 17.8125C69.125 17.166 68.8682 16.546 68.4111 16.0889C67.954 15.6318 67.334 15.375 66.6875 15.375H52.0625V5.625C52.709 5.625 53.329 5.36819 53.7861 4.91107C54.2432 4.45395 54.5 3.83397 54.5 3.1875C54.5 2.54103 54.2432 1.92105 53.7861 1.46393C53.329 1.00681 52.709 0.75 52.0625 0.75H8.1875C7.54103 0.75 6.92105 1.00681 6.46393 1.46393C6.00681 1.92105 5.75 2.54103 5.75 3.1875C5.75 3.83397 6.00681 4.45395 6.46393 4.91107C6.92105 5.36819 7.54103 5.625 8.1875 5.625V54.375H3.3125C2.66603 54.375 2.04605 54.6318 1.58893 55.0889C1.13181 55.546 0.875 56.166 0.875 56.8125C0.875 57.459 1.13181 58.079 1.58893 58.5361C2.04605 58.9932 2.66603 59.25 3.3125 59.25H71.5625C72.209 59.25 72.829 58.9932 73.2861 58.5361C73.7432 58.079 74 57.459 74 56.8125C74 56.166 73.7432 55.546 73.2861 55.0889C72.829 54.6318 72.209 54.375 71.5625 54.375ZM61.8125 20.25V54.375H52.0625V20.25H61.8125ZM13.0625 5.625H47.1875V54.375H39.875V39.75C39.875 39.1035 39.6182 38.4835 39.1611 38.0264C38.704 37.5693 38.084 37.3125 37.4375 37.3125H22.8125C22.166 37.3125 21.546 37.5693 21.0889 38.0264C20.6318 38.4835 20.375 39.1035 20.375 39.75V54.375H13.0625V5.625ZM35 54.375H25.25V42.1875H35V54.375ZM17.9375 15.375C17.9375 14.7285 18.1943 14.1085 18.6514 13.6514C19.1085 13.1943 19.7285 12.9375 20.375 12.9375H25.25C25.8965 12.9375 26.5165 13.1943 26.9736 13.6514C27.4307 14.1085 27.6875 14.7285 27.6875 15.375C27.6875 16.0215 27.4307 16.6415 26.9736 17.0986C26.5165 17.5557 25.8965 17.8125 25.25 17.8125H20.375C19.7285 17.8125 19.1085 17.5557 18.6514 17.0986C18.1943 16.6415 17.9375 16.0215 17.9375 15.375ZM32.5625 15.375C32.5625 14.7285 32.8193 14.1085 33.2764 13.6514C33.7335 13.1943 34.3535 12.9375 35 12.9375H39.875C40.5215 12.9375 41.1415 13.1943 41.5986 13.6514C42.0557 14.1085 42.3125 14.7285 42.3125 15.375C42.3125 16.0215 42.0557 16.6415 41.5986 17.0986C41.1415 17.5557 40.5215 17.8125 39.875 17.8125H35C34.3535 17.8125 33.7335 17.5557 33.2764 17.0986C32.8193 16.6415 32.5625 16.0215 32.5625 15.375ZM17.9375 27.5625C17.9375 26.916 18.1943 26.296 18.6514 25.8389C19.1085 25.3818 19.7285 25.125 20.375 25.125H25.25C25.8965 25.125 26.5165 25.3818 26.9736 25.8389C27.4307 26.296 27.6875 26.916 27.6875 27.5625C27.6875 28.209 27.4307 28.829 26.9736 29.2861C26.5165 29.7432 25.8965 30 25.25 30H20.375C19.7285 30 19.1085 29.7432 18.6514 29.2861C18.1943 28.829 17.9375 28.209 17.9375 27.5625ZM32.5625 27.5625C32.5625 26.916 32.8193 26.296 33.2764 25.8389C33.7335 25.3818 34.3535 25.125 35 25.125H39.875C40.5215 25.125 41.1415 25.3818 41.5986 25.8389C42.0557 26.296 42.3125 26.916 42.3125 27.5625C42.3125 28.209 42.0557 28.829 41.5986 29.2861C41.1415 29.7432 40.5215 30 39.875 30H35C34.3535 30 33.7335 29.7432 33.2764 29.2861C32.8193 28.829 32.5625 28.209 32.5625 27.5625Z" fill="url(#paint0_linear_1_39)" fill-opacity="0.36"/>
<defs>
<linearGradient id="paint0_linear_1_39" x1="37.4375" y1="0.75" x2="37.4375" y2="59.25" gradientUnits="userSpaceOnUse">
<stop stop-color="white"/>
<stop offset="1" stop-color="white" stop-opacity="0.36"/>
</linearGradient>
</defs>
</svg>
