<svg width="64" height="70" viewBox="0 0 64 70" fill="none" xmlns="http://www.w3.org/2000/svg">
<path d="M63.3554 48.4063C63.6773 48.9649 63.7648 49.6284 63.5986 50.2514C63.4324 50.8745 63.0262 51.4063 62.4688 51.7304L33.2188 68.7929C32.846 69.0102 32.4223 69.1248 31.9909 69.1248C31.5594 69.1248 31.1357 69.0102 30.763 68.7929L1.51297 51.7304C0.963599 51.4003 0.56636 50.867 0.407258 50.2462C0.248156 49.6253 0.339996 48.9668 0.662892 48.4131C0.985789 47.8595 1.51376 47.4553 2.13249 47.288C2.75122 47.1208 3.41091 47.204 3.96875 47.5196L32 63.8661L60.0312 47.5196C60.5899 47.1977 61.2534 47.1102 61.8764 47.2764C62.4995 47.4426 63.0313 47.8488 63.3554 48.4063ZM60.0312 32.8946L32 49.2411L3.96875 32.8946C3.41374 32.6183 2.7743 32.5638 2.18055 32.7423C1.58681 32.9208 1.08341 33.3189 0.7728 33.8555C0.462192 34.392 0.367726 35.0268 0.50863 35.6306C0.649534 36.2343 1.01522 36.7617 1.53125 37.1054L30.7812 54.1679C31.154 54.3852 31.5777 54.4998 32.0091 54.4998C32.4406 54.4998 32.8643 54.3852 33.237 54.1679L62.487 37.1054C62.768 36.9464 63.0145 36.7333 63.2124 36.4783C63.4103 36.2233 63.5556 35.9315 63.6398 35.6199C63.724 35.3083 63.7455 34.983 63.703 34.6631C63.6605 34.3431 63.5549 34.0347 63.3923 33.7559C63.2297 33.4771 63.0133 33.2333 62.7557 33.0388C62.4982 32.8443 62.2045 32.7028 61.8918 32.6227C61.5791 32.5426 61.2537 32.5253 60.9343 32.572C60.6149 32.6187 60.3079 32.7284 60.0312 32.8946ZM0.3125 20.375C0.313472 19.9481 0.42656 19.5289 0.640447 19.1594C0.854334 18.7899 1.16152 18.4831 1.53125 18.2696L30.7812 1.20711C31.154 0.989766 31.5777 0.875244 32.0091 0.875244C32.4406 0.875244 32.8643 0.989766 33.237 1.20711L62.487 18.2696C62.855 18.4843 63.1603 18.7916 63.3724 19.161C63.5846 19.5304 63.6962 19.949 63.6962 20.375C63.6962 20.801 63.5846 21.2196 63.3724 21.589C63.1603 21.9584 62.855 22.2657 62.487 22.4804L33.237 39.5429C32.8643 39.7602 32.4406 39.8748 32.0091 39.8748C31.5777 39.8748 31.154 39.7602 30.7812 39.5429L1.53125 22.4804C1.16152 22.2669 0.854334 21.9601 0.640447 21.5906C0.42656 21.2211 0.313472 20.8019 0.3125 20.375ZM7.58844 20.375L32 34.6161L56.4116 20.375L32 6.13391L7.58844 20.375Z" fill="url(#paint0_linear_1_34)" fill-opacity="0.36"/>
<defs>
<linearGradient id="paint0_linear_1_34" x1="32.0184" y1="0.875244" x2="32.0184" y2="69.1248" gradientUnits="userSpaceOnUse">
<stop stop-color="white"/>
<stop offset="1" stop-color="white" stop-opacity="0.36"/>
</linearGradient>
</defs>
</svg>
