<svg width="19" height="19" viewBox="0 0 19 19" fill="none" xmlns="http://www.w3.org/2000/svg">
<g clip-path="url(#clip0_5_8)">
<path d="M18.9845 11.8992C18.9845 9.24134 16.3266 7.05807 13.2892 7.05807C10.1568 7.05807 7.59396 9.24134 7.59396 11.8992C7.59396 14.557 10.0618 16.7403 13.2892 16.7403C13.9538 16.7403 14.6184 16.5503 15.2825 16.3607L17.0862 17.4049L16.6116 15.6962C17.9408 14.652 18.9845 13.3229 18.9845 11.8992ZM11.4859 11.0446C11.1064 11.0446 10.8214 10.7596 10.8214 10.38C10.8214 10.0955 11.2009 9.71548 11.4859 9.71548C11.9605 9.71548 12.3405 10.0005 12.3405 10.38C12.3401 10.665 11.9605 11.0446 11.4859 11.0446ZM15.0929 11.0446C14.8083 11.0446 14.4284 10.7596 14.4284 10.38C14.4284 10.0955 14.8079 9.71548 15.0929 9.71548C15.5675 9.71548 15.9475 10.0005 15.9475 10.38C15.9475 10.665 15.6625 11.0446 15.0929 11.0446Z" fill="white"/>
<path d="M6.64439 1.93195C2.94241 1.93195 -0.000427228 4.40023 -0.000427246 7.62764C-0.000427246 9.43134 1.04371 10.95 2.65741 12.0892L1.99328 14.0825L4.36655 12.9433C5.22069 13.1333 5.88525 13.3229 6.73982 13.3229H7.40439C7.30939 12.8483 7.21482 12.3737 7.21482 11.8992C7.21482 8.95677 9.68266 6.58307 12.9101 6.58307H13.5746C12.8146 3.92523 9.9668 1.93195 6.64439 1.93195ZM4.55612 6.3935C4.08155 6.3935 3.51198 6.1085 3.51198 5.53893C3.51198 5.06393 3.98698 4.68436 4.55612 4.68436C5.03069 4.68436 5.41069 4.96936 5.41069 5.53893C5.31569 6.1085 5.03112 6.3935 4.55612 6.3935ZM9.20766 6.3935C8.7331 6.3935 8.16353 6.1085 8.16353 5.53893C8.16353 5.06393 8.6381 4.68436 9.20766 4.68436C9.68223 4.68436 10.0622 4.96936 10.0622 5.53893C10.0618 6.1085 9.68223 6.3935 9.20766 6.3935Z" fill="white"/>
</g>
<defs>
<clipPath id="clip0_5_8">
<rect width="19" height="19" fill="white"/>
</clipPath>
</defs>
</svg>
